<svg width="40" height="40" viewBox="0 0 40 40" fill="none" xmlns="http://www.w3.org/2000/svg">
<path d="M38.465 8.28289L15.2018 1.27148L6.00793 30.7103L29.4104 37.9075L38.465 8.28289Z" fill="#1FC87F"/>
<path fill-rule="evenodd" clip-rule="evenodd" d="M7.74414 25.0896L24.6717 30.2955C25.2962 30.4876 25.9597 30.1446 26.1641 29.524L30.7044 15.7444C30.9156 15.1035 30.557 14.4146 29.911 14.2199L12.7537 9.04883L7.74414 25.0896Z" fill="#0D0D0D"/>
<path d="M29.0214 12.4784L8.04417 6.156C7.42612 5.96973 6.77145 6.30576 6.5625 6.91652L1.90469 20.5311C1.6854 21.1721 2.03982 21.8674 2.68734 22.0665L23.7821 28.554C24.4066 28.746 25.0701 28.4031 25.2745 27.7825L29.8148 14.0029C30.026 13.362 29.6674 12.6731 29.0214 12.4784Z" fill="white" stroke="#0D0D0D" stroke-width="0.4" stroke-linejoin="round"/>
<path d="M29.3555 15.3867L6.10551 8.24296L5.33977 10.5001L28.6055 17.6483L29.3555 15.3867Z" fill="#FFF066" stroke="#0D0D0D" stroke-width="0.4" stroke-linejoin="round"/>
<rect x="17.9467" y="22.4238" width="6.57305" height="2.11507" rx="0.2" transform="rotate(17.0785 17.9467 22.4238)" fill="#FFF066" stroke="#0D0D0D" stroke-width="0.4" stroke-linejoin="round"/>
</svg>
