<svg width="39" height="34" viewBox="0 0 39 34" fill="none" xmlns="http://www.w3.org/2000/svg">
<path d="M1.46484 21.729L6.21875 7.63672L36.2144 16.126L31.2906 30.2749L1.46484 21.729Z" fill="white" stroke="#0D0D0D" stroke-width="0.4" stroke-linejoin="round"/>
<path d="M3.68604 25.3257L1.45264 21.7578L31.2897 30.2729L33.1017 33.1613L3.68604 25.3257Z" fill="white" stroke="#0D0D0D" stroke-width="0.4" stroke-linejoin="round"/>
<path d="M37.8438 18.825L36.2134 16.1309L31.2915 30.2754L33.0962 33.1543L37.8438 18.825Z" fill="#1FC87F" stroke="#0D0D0D" stroke-width="0.4" stroke-linejoin="round"/>
<path d="M8.55051 8.3125L13.6062 9.7251L9.1603 23.9691L10.7215 27.2104L5.66617 25.8871L3.74805 22.4673L8.55051 8.3125Z" fill="#1FC87F"/>
<path d="M9.1603 23.9691L13.6062 9.7251L8.55051 8.3125L3.74805 22.4673M9.1603 23.9691L10.7215 27.2104L5.66617 25.8871L3.74805 22.4673M9.1603 23.9691L3.74805 22.4673" stroke="#0D0D0D" stroke-width="0.4" stroke-linejoin="round"/>
<path d="M26.3999 22.7437L27.5024 19.5234L30.7512 20.4809L29.6489 23.7008L26.3999 22.7437Z" stroke="#0D0D0D" stroke-width="0.4" stroke-linejoin="round"/>
<circle cx="18.8398" cy="19.2041" r="5.44039" fill="#FFF066" stroke="#0D0D0D" stroke-width="0.4" stroke-linejoin="round"/>
<path d="M1.01221 15.0923L5.76611 1L35.7618 9.48924L30.838 23.6382L1.01221 15.0923Z" fill="white" stroke="#0D0D0D" stroke-width="0.4" stroke-linejoin="round"/>
<path d="M3.2334 18.689L1 15.1211L30.8371 23.6361L32.649 26.5246L3.2334 18.689Z" fill="white" stroke="#0D0D0D" stroke-width="0.4" stroke-linejoin="round"/>
<path d="M37.3912 12.1883L35.7607 9.49414L30.8389 23.6387L32.6436 26.5176L37.3912 12.1883Z" fill="#1FC87F" stroke="#0D0D0D" stroke-width="0.4" stroke-linejoin="round"/>
<path d="M8.09787 1.67578L13.1535 3.08838L8.70766 17.3324L10.2689 20.5737L5.21353 19.2504L3.29541 15.8306L8.09787 1.67578Z" fill="#1FC87F"/>
<path d="M8.70766 17.3324L13.1535 3.08838L8.09787 1.67578L3.29541 15.8306M8.70766 17.3324L10.2689 20.5737L5.21353 19.2504L3.29541 15.8306M8.70766 17.3324L3.29541 15.8306" stroke="#0D0D0D" stroke-width="0.4" stroke-linejoin="round"/>
<path d="M25.9473 16.1069L27.0498 12.8867L30.2986 13.8441L29.1963 17.0641L25.9473 16.1069Z" stroke="#0D0D0D" stroke-width="0.4" stroke-linejoin="round"/>
<circle cx="18.3872" cy="12.5673" r="5.44039" fill="#FFF066" stroke="#0D0D0D" stroke-width="0.4" stroke-linejoin="round"/>
</svg>
