<svg width="40" height="40" viewBox="0 0 40 40" fill="none" xmlns="http://www.w3.org/2000/svg">
<path d="M28.1528 35.6819L1 28.4043L3.00768 31.8674L30.1733 39.2758L28.1528 35.6819Z" fill="#1E8057" stroke="#0D0D0D" stroke-width="0.4" stroke-linejoin="round"/>
<path d="M37.2874 8.5293L28.1528 35.6821L30.1733 39.276L39.3572 11.4155L37.2874 8.5293Z" fill="#1FC87F" stroke="#0D0D0D" stroke-width="0.4" stroke-linejoin="round"/>
<path d="M1 28.4037L10.1346 1L37.2874 8.52848L28.1529 35.6812L1 28.4037Z" fill="white" stroke="#0D0D0D" stroke-width="0.4" stroke-linejoin="round"/>
<path d="M12.6287 31.4555L21.491 4.14062L25.5654 5.2878L16.6932 32.5617L12.6287 31.4555Z" fill="#1FC87F" stroke="#0D0D0D" stroke-width="0.4" stroke-linejoin="round"/>
<path d="M14.2606 34.8867L12.6287 31.4551L16.6932 32.5613L18.7111 36.1473L14.2606 34.8867Z" stroke="#0D0D0D" stroke-width="0.4" stroke-linejoin="round"/>
<path d="M18.8538 26.5446C19.1214 25.742 18.9653 20.7907 18.8538 18.4154L20.2171 17.5664C22.2237 17.695 23.227 26.9047 22.3523 26.5446C21.6526 26.2565 19.8313 26.4245 18.8538 26.5446Z" fill="#FFF066" stroke="#0D0D0D" stroke-width="0.4" stroke-linejoin="round"/>
<path d="M14.5157 24.8822C15.1883 24.6978 17.909 20.3509 18.854 19.3312L17.4019 17.9824C14.2268 19.7757 11.6747 22.7687 11.455 23.5071C12.4659 24.6586 13.8431 25.0665 14.5157 24.8822Z" fill="#FFF066" stroke="#0D0D0D" stroke-width="0.4" stroke-linejoin="round"/>
<path d="M30.6619 18.2654C32.1594 15.7988 25.5759 16.0738 22.3804 16.6594L20.2118 17.774L21.1084 19.8178C29.4014 29.2682 28.0894 22.5025 30.6619 18.2654Z" fill="#FFF066" stroke="#0D0D0D" stroke-width="0.4" stroke-linejoin="round"/>
<path d="M21.0742 19.5234C24.485 20.2531 29.2722 22.4431 27.934 24.1935C26.5958 25.944 22.365 21.5374 21.0742 19.5234Z" fill="#8A8A8A" stroke="#0D0D0D" stroke-width="0.4" stroke-linejoin="round"/>
<path d="M10.7051 11.1156C11.0004 11.1367 16.1068 14.2801 18.1814 15.6514C20.0142 16.0382 18.3136 18.1937 17.9836 18.3809C15.7158 19.6671 8.29208 20.1478 8.12063 18.7765C7.51408 12.6187 10.3358 11.0892 10.7051 11.1156Z" fill="#FFF066" stroke="#0D0D0D" stroke-width="0.4" stroke-linejoin="round"/>
<path d="M16.6071 18.8965C14.5737 19.5504 7.42888 20.4564 8.12627 18.1453C8.44379 15.6234 14.4911 17.7926 16.6071 18.8965Z" fill="#8A8A8A" stroke="#0D0D0D" stroke-width="0.4" stroke-linejoin="round"/>
<path d="M16.4449 17.8036L16.8573 16.3134C17.0289 15.6935 17.5009 15.1988 18.1435 15.2284C19.743 15.3023 22.188 16.065 22.1471 16.5352C22.114 16.9156 21.5635 18.2244 21.1128 19.2755C20.9176 19.7307 20.5643 20.1147 20.0906 20.2591C17.9403 20.9145 16.7843 19.6356 16.4333 18.613C16.3436 18.3516 16.3712 18.0699 16.4449 17.8036Z" fill="#FFF066" stroke="#0D0D0D" stroke-width="0.4" stroke-linejoin="round"/>
</svg>
