<svg width="40" height="49" viewBox="0 0 40 49" fill="none" xmlns="http://www.w3.org/2000/svg">
<path d="M8.80786 45.4963L10.9202 32.8848L26.8245 34.5L24.6501 48.4783L17.5056 40.4641L8.80786 45.4963Z" fill="#FFF066" stroke="#0D0D0D" stroke-width="0.4" stroke-linejoin="round"/>
<ellipse cx="17.6695" cy="18.2302" rx="17.6695" ry="18.2302" transform="matrix(-1 0 0 1 39.3833 2.16992)" fill="#1FC87F"/>
<path fill-rule="evenodd" clip-rule="evenodd" d="M13.9886 36.8012C16.3223 37.9736 18.9436 38.6313 21.7138 38.6313C28.2254 38.6313 33.9144 34.9972 36.9792 29.5877L16.8888 24.752L13.9886 36.8012Z" fill="#1E8057"/>
<path d="M13.9886 36.8012L13.8988 36.9799C13.8157 36.9382 13.7724 36.8448 13.7941 36.7544L13.9886 36.8012ZM36.9792 29.5877L37.0261 29.3932C37.0871 29.4079 37.1377 29.4504 37.1627 29.508C37.1877 29.5656 37.1842 29.6316 37.1533 29.6862L36.9792 29.5877ZM16.8888 24.752L16.6943 24.7052C16.7068 24.6536 16.7391 24.6091 16.7844 24.5814C16.8296 24.5537 16.884 24.5451 16.9356 24.5575L16.8888 24.752ZM14.0784 36.6225C16.385 37.7813 18.9757 38.4313 21.7138 38.4313V38.8313C18.9116 38.8313 16.2596 38.1659 13.8988 36.9799L14.0784 36.6225ZM21.7138 38.4313C28.1484 38.4313 33.7733 34.8405 36.8052 29.4891L37.1533 29.6862C34.0554 35.154 28.3025 38.8313 21.7138 38.8313V38.4313ZM16.9356 24.5575L37.0261 29.3932L36.9324 29.7821L16.842 24.9464L16.9356 24.5575ZM13.7941 36.7544L16.6943 24.7052L17.0832 24.7988L14.183 36.848L13.7941 36.7544Z" fill="#0D0D0D"/>
<ellipse cx="17.2005" cy="18.2302" rx="17.2005" ry="18.2302" transform="matrix(-1 0 0 1 35.0176 1.36914)" fill="white" stroke="#0D0D0D" stroke-width="0.4" stroke-linejoin="round"/>
<ellipse cx="13.6177" cy="14.6159" rx="13.6177" ry="14.6159" transform="matrix(-1 0 0 1 31.2797 4.98242)" stroke="#0D0D0D" stroke-width="0.4" stroke-linejoin="round"/>
<path d="M19.3707 11.1098L15.8663 15.6465L10.1421 15.3317L13.3741 20.0663L11.3059 25.4127L16.8077 23.8021L21.2536 27.4212L21.422 21.6912L26.238 18.5815L20.8402 16.6507L19.3707 11.1098Z" fill="#FFF066" stroke="#0D0D0D" stroke-width="0.4" stroke-linejoin="round"/>
</svg>
