<svg width="40" height="40" viewBox="0 0 40 40" fill="none" xmlns="http://www.w3.org/2000/svg">
<path d="M37.6417 8.40535L12.9985 0.525391L2.35818 31.5931L27.7041 39.4729L37.6417 8.40535Z" fill="white" stroke="#0D0D0D" stroke-width="0.4" stroke-linejoin="round"/>
<path d="M37.6417 8.40535L12.9985 0.525391L2.35818 31.5931L27.7041 39.4729L37.6417 8.40535Z" fill="white" stroke="#0D0D0D" stroke-width="0.4" stroke-linejoin="round"/>
<path fill-rule="evenodd" clip-rule="evenodd" d="M4.97798 23.9453L30.1665 31.7762L27.7041 39.4744L2.35818 31.5946L4.97798 23.9453Z" fill="#1FC87F"/>
<path d="M4.97798 23.9453L5.03735 23.7543C4.934 23.7222 4.82383 23.7781 4.78876 23.8805L4.97798 23.9453ZM30.1665 31.7762L30.357 31.8371C30.3733 31.7864 30.3686 31.7312 30.344 31.6839C30.3193 31.6366 30.2768 31.6011 30.2259 31.5852L30.1665 31.7762ZM27.7041 39.4744L27.6447 39.6654C27.7496 39.698 27.8611 39.6399 27.8946 39.5353L27.7041 39.4744ZM2.35818 31.5946L2.16897 31.5298C2.15147 31.5809 2.15539 31.6369 2.17984 31.6851C2.2043 31.7333 2.24721 31.7695 2.29881 31.7856L2.35818 31.5946ZM4.9186 24.1363L30.1072 31.9672L30.2259 31.5852L5.03735 23.7543L4.9186 24.1363ZM27.8946 39.5353L30.357 31.8371L29.976 31.7153L27.5136 39.4135L27.8946 39.5353ZM2.29881 31.7856L27.6447 39.6654L27.7635 39.2834L2.41756 31.4036L2.29881 31.7856ZM4.78876 23.8805L2.16897 31.5298L2.5474 31.6594L5.16719 24.0101L4.78876 23.8805Z" fill="#0D0D0D"/>
<path d="M10.326 15.6797L31.0801 22.617" stroke="#0D0D0D" stroke-width="0.4" stroke-linejoin="round"/>
<path d="M9.41296 18.4121L30.167 25.3494" stroke="#0D0D0D" stroke-width="0.4" stroke-linejoin="round"/>
<path d="M8.49988 21.1426L29.2539 28.0798" stroke="#0D0D0D" stroke-width="0.4" stroke-linejoin="round"/>
<path fill-rule="evenodd" clip-rule="evenodd" d="M6.59287 19.2285C7.55952 20.1669 8.74916 20.8685 10.1103 21.2332C14.7402 22.4738 19.6009 19.3467 20.9669 14.2487C22.333 9.15065 19.687 4.01218 15.057 2.77159C14.1415 2.52627 13.2169 2.45173 12.3121 2.52945L6.59287 19.2285Z" fill="#0D0D0D"/>
<path d="M10.1103 21.2332L10.0585 21.4264H10.0585L10.1103 21.2332ZM6.59287 19.2285L6.40365 19.1637C6.37857 19.237 6.39801 19.3181 6.45356 19.372L6.59287 19.2285ZM20.9669 14.2487L21.1601 14.3004L20.9669 14.2487ZM15.057 2.77159L15.0053 2.96477L15.057 2.77159ZM12.3121 2.52945L12.295 2.33019C12.2161 2.33697 12.1486 2.3897 12.1229 2.46465L12.3121 2.52945ZM10.162 21.04C8.83533 20.6845 7.67548 20.0007 6.73217 19.085L6.45356 19.372C7.44356 20.3331 8.66298 21.0524 10.0585 21.4264L10.162 21.04ZM20.7738 14.1969C19.4315 19.2062 14.6682 22.2474 10.162 21.04L10.0585 21.4264C14.8122 22.7001 19.7703 19.4872 21.1601 14.3004L20.7738 14.1969ZM15.0053 2.96477C19.5115 4.1722 22.116 9.18766 20.7738 14.1969L21.1601 14.3004C22.5499 9.11365 19.8625 3.85217 15.1088 2.5784L15.0053 2.96477ZM12.3292 2.72872C13.2114 2.65294 14.1127 2.7256 15.0053 2.96477L15.1088 2.5784C14.1703 2.32693 13.2224 2.25053 12.295 2.33019L12.3292 2.72872ZM12.1229 2.46465L6.40365 19.1637L6.78208 19.2933L12.5013 2.59426L12.1229 2.46465Z" fill="#0D0D0D"/>
<path d="M19.6819 12.6491C18.3159 17.7471 13.4552 20.8742 8.82519 19.6336C4.19522 18.393 1.54926 13.2545 2.91527 8.15647C4.28128 3.05844 9.14199 -0.0686196 13.772 1.17198C18.4019 2.41257 21.0479 7.55104 19.6819 12.6491Z" fill="#FFF066" stroke="#0D0D0D" stroke-width="0.4" stroke-linejoin="round"/>
<path d="M18.1601 12.2422C17.0728 16.3 13.1193 18.7663 9.3298 17.7509C5.54026 16.7355 3.34964 12.6229 4.43691 8.56514C5.52419 4.50738 9.47763 2.04106 13.2672 3.05646C17.0567 4.07187 19.2473 8.18448 18.1601 12.2422Z" fill="white" stroke="#0D0D0D" stroke-width="0.4" stroke-linejoin="round"/>
<path d="M12.245 5.0332L11.1428 10.6052L15.6432 11.799" stroke="#0D0D0D" stroke-width="0.4" stroke-linejoin="round"/>
<ellipse cx="11.2985" cy="10.403" rx="1.53656" ry="1.64532" transform="rotate(15 11.2985 10.403)" fill="#8A8A8A" stroke="#0D0D0D" stroke-width="0.4" stroke-linejoin="round"/>
</svg>
