<svg width="40" height="40" viewBox="0 0 40 40" fill="none" xmlns="http://www.w3.org/2000/svg">
<path d="M31.1466 39.0117L37.5362 17.0445C37.6739 16.5709 37.4089 16.0738 36.9389 15.9243L12.0888 8.01769C11.5955 7.86072 11.0709 8.14682 10.9357 8.64656L6.05569 26.6837C5.92655 27.161 6.20261 27.654 6.67705 27.7934L27.0048 33.7636L31.1466 39.0117Z" fill="#1FC87F"/>
<path d="M31.1466 39.0117L37.5362 17.0445C37.6739 16.5709 37.4089 16.0738 36.9389 15.9243L12.0888 8.01769C11.5955 7.86072 11.0709 8.14682 10.9357 8.64656L6.05569 26.6837C5.92655 27.161 6.20261 27.654 6.67705 27.7934L27.0048 33.7636L31.1466 39.0117Z" stroke="#0D0D0D" stroke-width="0.4" stroke-linejoin="round"/>
<path fill-rule="evenodd" clip-rule="evenodd" d="M34.7818 15.3668L31.5396 24.9834C30.862 26.9935 28.7331 28.125 26.6879 27.5621L7.39953 22.2539L10.7397 9.90799C11.0372 8.80857 12.1914 8.17913 13.2767 8.52446L34.7818 15.3668Z" fill="#0D0D0D"/>
<path d="M2.42749 23.0723L8.9094 2.84461C9.24039 1.81174 10.3343 1.23091 11.3753 1.53532L33.2642 7.93593C34.3505 8.25358 34.957 9.40855 34.6018 10.4832L29.984 24.4549C29.6465 25.4761 28.5618 26.0476 27.5287 25.7484L9.10267 20.4121L2.42749 23.0723Z" fill="white"/>
<path d="M2.42749 23.0723L8.9094 2.84461C9.24039 1.81174 10.3343 1.23091 11.3753 1.53532L33.2642 7.93593C34.3505 8.25358 34.957 9.40855 34.6018 10.4832L29.984 24.4549C29.6465 25.4761 28.5618 26.0476 27.5287 25.7484L9.10267 20.4121L2.42749 23.0723Z" stroke="#0D0D0D" stroke-width="0.4" stroke-linejoin="round"/>
<circle cx="14.1968" cy="11.8168" r="2.28361" fill="#FFF066" stroke="#0D0D0D" stroke-width="0.4" stroke-linejoin="round"/>
<circle cx="19.8796" cy="13.5746" r="2.28361" fill="#FFF066" stroke="#0D0D0D" stroke-width="0.4" stroke-linejoin="round"/>
<circle cx="25.5623" cy="15.3813" r="2.28361" fill="#FFF066" stroke="#0D0D0D" stroke-width="0.4" stroke-linejoin="round"/>
</svg>
